<?xml version="1.0" encoding="UTF-8"?>
<svg width="81px" height="73px" viewBox="0 0 81 73" version="1.1" xmlns="http://www.w3.org/2000/svg" xmlns:xlink="http://www.w3.org/1999/xlink">
    <!-- Generator: Sketch 41.2 (35397) - http://www.bohemiancoding.com/sketch -->
    <title>Group 7</title>
    <desc>Created with Sketch.</desc>
    <defs></defs>
    <g id="Page-1" stroke="none" stroke-width="1" fill="none" fill-rule="evenodd">
        <g id="Group-7">
            <path d="M25.0733846,72.8582527 C33.0333071,71.0205598 35.7286442,53.2554894 31.0935885,33.1788574 C26.4585328,13.1022254 16.2482856,-1.68335603 8.28836306,0.154336886 C0.328440551,1.9920298 -2.36689654,19.7571002 2.26815916,39.8337321 C6.90321487,59.9103641 17.1134621,74.6959456 25.0733846,72.8582527 Z M55.2379937,72.8582527 C47.2780712,71.0205598 44.5827341,53.2554894 49.2177898,33.1788574 C53.8528455,13.1022254 64.0630927,-1.68335603 72.0230153,0.154336886 C79.9829378,1.9920298 82.6782749,19.7571002 78.0432191,39.8337321 C73.4081634,59.9103641 63.1979162,74.6959456 55.2379937,72.8582527 Z" id="10" fill="#353535"></path>
            <ellipse id="Oval-5" stroke="#979797" transform="translate(7.588889, 29.050266) rotate(-10.000000) translate(-7.588889, -29.050266) " cx="7.5888887" cy="29.0502664" rx="4" ry="9.5"></ellipse>
            <ellipse id="Oval-5-Copy" stroke="#979797" transform="translate(72.455288, 29.050266) scale(-1, 1) rotate(-10.000000) translate(-72.455288, -29.050266) " cx="72.4552878" cy="29.0502664" rx="4" ry="9.5"></ellipse>
        </g>
    </g>
</svg>