<?xml version="1.0" encoding="UTF-8"?>
<svg width="81px" height="73px" viewBox="0 0 81 73" version="1.1" xmlns="http://www.w3.org/2000/svg" xmlns:xlink="http://www.w3.org/1999/xlink">
    <!-- Generator: Sketch 41.2 (35397) - http://www.bohemiancoding.com/sketch -->
    <title>Rectangle 6</title>
    <desc>Created with Sketch.</desc>
    <defs>
        <path d="M25.0733846,72.8582527 C33.0333071,71.0205598 35.7286442,53.2554894 31.0935885,33.1788574 C26.4585328,13.1022254 16.2482856,-1.68335603 8.28836306,0.154336886 C0.328440551,1.9920298 -2.36689654,19.7571002 2.26815916,39.8337321 C6.90321487,59.9103641 17.1134621,74.6959456 25.0733846,72.8582527 Z M55.2379937,72.8582527 C47.2780712,71.0205598 44.5827341,53.2554894 49.2177898,33.1788574 C53.8528455,13.1022254 64.0630927,-1.68335603 72.0230153,0.154336886 C79.9829378,1.9920298 82.6782749,19.7571002 78.0432191,39.8337321 C73.4081634,59.9103641 63.1979162,74.6959456 55.2379937,72.8582527 Z" id="path-1"></path>
    </defs>
    <g id="Page-1" stroke="none" stroke-width="1" fill="none" fill-rule="evenodd">
        <g id="Rectangle-6">
            <mask id="mask-2" fill="white">
                <use xlink:href="#path-1"></use>
            </mask>
            <use id="Mask" fill="#FFDB93" xlink:href="#path-1"></use>
            <path d="M-7,15.5938394 C-7,6.98159972 -0.0228181384,0 8.59383943,0 L10.6890385,0 C19.3012782,0 26.603636,6.96428366 27,15.5701164 L26.863368,12.6035697 C27.2594236,21.2027076 20.6864488,29.1922656 12.161218,30.4518498 L8.41927212,31.0047142 C-0.096556724,32.2629093 -7,26.305696 -7,17.6890385 L-7,15.5938394 Z" fill="#595959" mask="url(#mask-2)"></path>
            <path d="M87,15.5938394 C87,6.98159972 80.0228181,0 71.4061606,0 L69.3109615,0 C60.6987218,0 53.396364,6.96428366 53,15.5701164 L53.136632,12.6035697 C52.7405764,21.2027076 59.3135512,29.1922656 67.838782,30.4518498 L71.5807279,31.0047142 C80.0965567,32.2629093 87,26.305696 87,17.6890385 L87,15.5938394 Z" id="Rectangle-6-Copy-2" fill="#595959" mask="url(#mask-2)"></path>
        </g>
    </g>
</svg>